<?xml version="1.0" standalone="no"?>
<!DOCTYPE svg PUBLIC "-//W3C//DTD SVG 20010904//EN"
 "http://www.w3.org/TR/2001/REC-SVG-20010904/DTD/svg10.dtd">
<svg version="1.0" xmlns="http://www.w3.org/2000/svg"
 width="512.000000pt" height="512.000000pt" viewBox="0 0 512.000000 512.000000"
 preserveAspectRatio="xMidYMid meet">
<metadata>
Created by potrace 1.16, written by Peter Selinger 2001-2019
</metadata>
<g transform="translate(0.000000,512.000000) scale(0.100000,-0.100000)"
fill="#000000" stroke="none">
<path d="M4149 4494 c-245 -172 -534 -407 -799 -651 -317 -292 -883 -916
-1209 -1331 -46 -58 -77 -89 -84 -85 -7 4 -223 155 -481 335 l-469 327 -26
-19 c-14 -10 -83 -76 -153 -147 l-127 -128 156 -215 c381 -524 808 -1143 999
-1446 58 -93 109 -173 113 -177 4 -4 56 75 116 175 259 438 624 1006 921 1433
184 265 430 602 442 607 5 2 70 82 144 178 355 456 748 892 1042 1158 l80 72
-271 0 -271 0 -123 -86z"/>
</g>
</svg>
