<?xml version="1.0" standalone="no"?>
<!DOCTYPE svg PUBLIC "-//W3C//DTD SVG 20010904//EN"
 "http://www.w3.org/TR/2001/REC-SVG-20010904/DTD/svg10.dtd">
<svg version="1.0" xmlns="http://www.w3.org/2000/svg"
 width="512.000000pt" height="512.000000pt" viewBox="0 0 512.000000 512.000000"
 preserveAspectRatio="xMidYMid meet">
<metadata>
Created by potrace 1.16, written by Peter Selinger 2001-2019
</metadata>
<g transform="translate(0.000000,512.000000) scale(0.100000,-0.100000)"
fill="#000000" stroke="none">
<path d="M2235 5105 c-462 -60 -885 -237 -1255 -523 -117 -91 -316 -287 -413
-407 -276 -342 -459 -746 -537 -1186 -28 -156 -39 -531 -21 -702 43 -399 182
-790 398 -1122 98 -150 184 -257 318 -394 419 -430 948 -690 1550 -760 134
-16 460 -13 605 4 748 93 1416 512 1833 1150 210 321 344 690 392 1075 20 162
20 477 0 640 -92 742 -510 1412 -1140 1826 -329 216 -695 350 -1085 399 -152
18 -501 18 -645 0z m-537 -1384 c20 -11 226 -209 457 -440 l420 -421 425 424
c234 233 439 431 457 440 18 9 57 16 91 16 112 0 192 -82 192 -199 0 -32 -7
-66 -19 -89 -11 -20 -209 -226 -440 -457 l-421 -420 424 -425 c233 -234 431
-439 440 -457 9 -18 16 -57 16 -91 0 -131 -118 -222 -246 -191 -46 11 -72 35
-484 445 l-435 434 -425 -425 c-235 -235 -441 -433 -460 -442 -78 -38 -191
-10 -243 59 -50 66 -56 142 -16 218 10 19 207 224 438 455 l421 420 -434 435
c-410 412 -434 438 -445 484 -14 58 -8 96 25 153 49 86 172 120 262 74z"/>
</g>
</svg>
